<svg id="cr-api-logo-pad"
    xmlns="http://www.w3.org/2000/svg" viewBox="250 250 1500 1500">
    <title>RoyaleAPI</title>
    <polygon class="cls-1" points="1091.06 1223 1091.06 1287.5 1173.19 1242.35 1091.06 1223"/>
    <path class="cls-1" d="M1239.41,969.73c0-26.23-21.5-44.29-48.16-40-26.23,3.87-47.73,28.81-47.73,55V1042l95.89-14.62Z"/>
    <path class="cls-1" d="M1268.68,555.77,1001.43,381.35l-1.22.8V686.72H952.6v48.16l-191.34-30.1V656.62H713.53V800.24h47.73V752.51l191.34,30.1v47.73h47.61v228.33H952.6l-47.72-7.74V993.74c0-52.89-43-102.34-95.46-110.51-52.89-8.6-95.89,27.52-95.89,80.41V1076.3h47.73l239,37.82v37L708.8,1219.49V1229l291.41,161.18v233.24l531.06-267.3,1-789.24H1305.84A68,68,0,0,1,1268.68,555.77ZM857.15,1043.19l-95.89-14.62V971c0-26.23,21.5-44.29,48.16-40,26.23,3.87,47.73,28.81,47.73,55Zm52.45,245.53-82.12-45.15,82.12-19.35Zm90.61,49.81L957.33,1315V1212.61l42.88-9.86Zm.12-653h47.73v48.16l191.35-30.1V655.4h47.73V799h-47.73V751.29l-191.35,30.1v47.73h-47.73Zm0,372h47.73l47.73-7.74V992.52c0-52.89,43-102.34,95.46-110.51,52.89-8.6,95.89,27.52,95.89,80.41v112.66h-47.73l-239.08,37.84Zm291.54,170.28L1000.33,1389v-51.6l43-23.65V1211.39l-43-9.89v-51.6l291.54,68.37Z"/>
    <path class="cls-1" d="M1001.21,300,700.14,498.83H400.06L399.21,1400l600,300,600-302,1.15-899.17H1305.85Zm553,1070.25-555.11,279.4L444.24,1372.2,445,543.83H700.14a45,45,0,0,0,24.79-7.45l276.43-182.55,279.89,182.68a45,45,0,0,0,24.6,7.32h249.46Z"/>
</svg>
